<svg width="243" height="73" viewBox="0 0 243 73" fill="none" xmlns="http://www.w3.org/2000/svg">
<path d="M41.988 0C42.3083 0.234327 42.6198 0.465932 42.9016 0.746701C42.9561 0.800933 43.0107 0.855164 43.0668 0.91104C43.1504 0.995628 43.1504 0.995628 43.2356 1.08192C43.2942 1.14098 43.3528 1.20003 43.4131 1.26087C43.8265 1.68157 44.2099 2.10759 44.5662 2.5782C44.6335 2.66381 44.7008 2.74936 44.7682 2.83487C47.7892 6.71365 49.3124 11.8148 48.765 16.7215C48.7407 16.7944 48.7164 16.8673 48.6913 16.9425C56.7375 16.9425 64.7837 16.9425 73.0737 16.9425C73.0737 22.4506 71.2973 27.8048 67.8437 32.1171C67.7856 32.1908 67.7275 32.2646 67.6676 32.3406C66.6413 33.6235 65.4638 34.872 64.1605 35.8739C64.0892 35.9325 64.0179 35.9912 63.9444 36.0517C62.741 37.0379 61.4149 37.8826 60.0354 38.5994C59.9865 38.6252 59.9376 38.6509 59.8873 38.6774C57.9483 39.6953 55.1999 41.0182 52.9638 40.9566C52.9494 40.8993 52.935 40.842 52.9202 40.783C52.6023 39.5274 52.2414 38.3097 51.7824 37.0969C51.6779 36.8142 51.5839 36.5287 51.4905 36.2422C51.7753 36.1554 52.057 36.0822 52.3494 36.0258C56.1957 35.2788 59.5738 33.4117 62.3926 30.7175C62.4477 30.6654 62.5028 30.6134 62.5595 30.5598C62.8931 30.2367 63.1873 29.8886 63.4774 29.5262C63.5841 29.3934 63.6925 29.2621 63.8032 29.1326C64.6123 28.1803 65.2769 27.1088 65.8548 26.003C65.9013 25.9154 65.9013 25.9154 65.9488 25.8259C66.622 24.5429 67.0091 23.2767 67.4754 21.8779C60.8877 21.9022 54.3 21.9265 47.5127 21.9516C47.2939 22.4377 47.0751 22.9239 46.8497 23.4248C46.0639 25.0083 45.0758 26.4964 43.8678 27.7908C43.7206 27.9504 43.5785 28.1121 43.4371 28.2768C43.1766 28.5754 42.8994 28.85 42.6095 29.1199C42.5581 29.1678 42.5067 29.2157 42.4538 29.265C42.0187 29.666 41.5681 30.038 41.0949 30.3927C40.9504 30.5012 40.8073 30.6112 40.6641 30.7212C39.3351 31.7308 37.9181 32.6247 36.506 33.5127C35.5015 34.1446 34.5952 34.8316 33.7377 35.6529C33.7006 35.688 33.6634 35.7231 33.6252 35.7593C33.0605 36.2955 32.5689 36.8603 32.1171 37.4944C32.087 37.5365 32.0568 37.5785 32.0257 37.6218C29.8912 40.6236 28.9454 44.4149 29.5516 48.0587C30.0101 50.6121 30.8856 53.0851 31.8962 55.4682C31.9294 55.5471 31.9627 55.626 31.997 55.7072C32.4996 56.8909 33.0526 58.0496 33.6189 59.2037C33.7243 59.4186 33.8289 59.6338 33.9334 59.8491C34.4678 60.9427 35.0484 62.0178 35.7044 63.0435C35.7502 63.1152 35.7959 63.1868 35.843 63.2606C35.8948 63.3414 35.8948 63.3414 35.9476 63.4238C35.9546 60.8258 35.9373 58.2288 35.903 55.631C35.8973 55.1922 35.8918 54.7535 35.8863 54.3147C35.8754 53.4468 35.8644 52.5789 35.8532 51.711C35.8525 51.6598 35.8519 51.6085 35.8512 51.5557C35.8499 51.452 35.8485 51.3483 35.8472 51.2446C35.8465 51.1932 35.8459 51.1417 35.8452 51.0887C35.8442 51.0115 35.8442 51.0115 35.8432 50.9328C35.8357 50.3576 35.8284 49.7825 35.821 49.2073C35.8204 49.1557 35.8197 49.104 35.819 49.0507C35.808 48.1826 35.797 47.3146 35.7861 46.4465C35.78 45.9633 35.7739 45.4802 35.7676 44.997C35.7664 44.9046 35.7652 44.8123 35.7639 44.7171C35.7615 44.5348 35.7592 44.3524 35.7568 44.17C35.7512 43.7416 35.7461 43.3131 35.742 42.8847C35.7405 42.7262 35.739 42.5677 35.7374 42.4092C35.7363 42.2964 35.7363 42.2964 35.7352 42.1812C35.731 41.7883 35.7233 41.3959 35.7094 41.0033C35.704 40.8467 35.6997 40.6902 35.6957 40.5337C35.691 40.358 35.6841 40.1825 35.6744 40.007C35.6635 39.4929 35.6635 39.4929 35.8442 39.2548C36.1229 39.004 36.4134 38.8513 36.7649 38.7259C36.9484 38.6568 37.1068 38.5542 37.2736 38.4521C37.3222 38.4521 37.3708 38.4521 37.4209 38.4521C37.3887 40.2906 37.3564 42.1291 37.3242 43.9676C37.323 44.0371 37.3218 44.1066 37.3205 44.1782C37.2391 48.8178 37.1575 53.4574 37.0756 58.0971C37.0744 58.1665 37.0731 58.236 37.0719 58.3076C37.0409 60.0621 37.0099 61.8166 36.9789 63.5711C37.1271 63.326 37.2751 63.0806 37.4229 62.8352C37.4972 62.7119 37.5717 62.5887 37.6462 62.4655C40.4866 57.7454 43.7245 51.5559 43.7099 45.9427C43.7098 45.8846 43.7098 45.8266 43.7097 45.7667C43.7065 44.7545 43.6238 43.7855 43.3876 42.7982C43.3718 42.7321 43.356 42.6661 43.3397 42.598C42.82 40.4999 41.884 38.4475 40.452 36.8102C40.2937 36.6105 40.2937 36.6105 40.2937 36.3895C40.4107 36.3328 40.4107 36.3328 40.53 36.275C41.2993 35.8912 42.0204 35.4539 42.7338 34.9761C42.7972 34.9338 42.7972 34.9338 42.8619 34.8906C43.3296 34.5776 43.7829 34.2588 44.2119 33.8941C44.2779 33.8531 44.2779 33.8531 44.3452 33.8113C44.5877 33.8921 44.6218 33.9321 44.7662 34.1304C44.8231 34.2083 44.8231 34.2083 44.8811 34.2878C44.9215 34.3448 44.9619 34.4018 45.0036 34.4605C45.0459 34.5199 45.0882 34.5794 45.1319 34.6407C48.2806 39.1254 49.3319 44.4687 48.4135 49.8399C47.9726 52.2571 47.1806 54.6243 46.1868 56.8678C46.1417 56.9704 46.1417 56.9704 46.0958 57.075C45.2264 59.0449 44.2574 60.978 43.1666 62.8345C43.1211 62.9124 43.0757 62.9902 43.0289 63.0705C42.6861 63.6573 42.3389 64.2414 41.988 64.8234C41.9461 64.8928 41.9043 64.9623 41.8612 65.0338C41.0136 66.4316 40.0949 67.7837 39.1848 69.1411C38.94 69.5062 38.6962 69.8718 38.4539 70.2385C37.9835 70.9498 37.5086 71.6536 36.9962 72.3353C36.8354 72.5529 36.6851 72.7737 36.5369 73C34.1173 71.9941 31.7821 67.0348 30.4966 64.8234C30.4656 64.7703 30.4347 64.7172 30.4028 64.6625C30.2409 64.3833 30.0834 64.102 29.9287 63.8188C29.8578 63.6891 29.7866 63.5596 29.7152 63.4303C27.708 59.7854 26.0908 55.9114 25.1192 51.8587C25.0883 51.7322 25.0883 51.7322 25.0568 51.6031C23.7494 46.1694 24.3079 40.6274 27.209 35.7789C27.4095 35.4586 27.6233 35.1488 27.8447 34.8426C27.9262 34.7288 27.9262 34.7288 28.0093 34.6127C30.151 31.6925 32.9618 29.741 35.9706 27.794C37.1592 27.0239 38.3008 26.2387 39.3361 25.2664C39.3753 25.2298 39.4144 25.1931 39.4547 25.1554C42.2814 22.4877 43.6457 18.8114 43.8431 14.9861C43.9174 11.6264 42.7177 8.25736 40.5884 5.67205C40.5382 5.61002 40.5382 5.61002 40.4869 5.54674C39.6234 4.44143 39.6234 4.44143 38.5258 3.60949C38.6376 3.34616 38.7922 3.17796 38.9942 2.97709C39.0605 2.91075 39.1269 2.84441 39.1952 2.77605C39.2677 2.70434 39.3402 2.63264 39.4127 2.56094C39.4868 2.48707 39.5609 2.41317 39.635 2.33924C39.8296 2.14516 40.0247 1.95152 40.2199 1.75797C40.4191 1.56023 40.618 1.36206 40.8169 1.16393C41.2068 0.775543 41.5973 0.387625 41.988 0Z" fill="white"/>
<path d="M31.2213 0.0117573C31.4366 0.0954181 31.555 0.220566 31.7182 0.383905C31.7845 0.449789 31.8508 0.515674 31.9192 0.583555C31.9909 0.655922 32.0626 0.728312 32.1343 0.800723C32.2082 0.874622 32.2821 0.948483 32.356 1.02231C32.5107 1.17696 32.6649 1.33199 32.8189 1.4873C33.0166 1.68669 33.2151 1.88524 33.4139 2.08354C33.5665 2.23587 33.7187 2.38856 33.8708 2.54137C33.9439 2.61475 34.0171 2.68803 34.0904 2.7612C34.1925 2.8633 34.2941 2.96592 34.3956 3.06857C34.4536 3.12691 34.5116 3.18525 34.5714 3.24536C34.6953 3.38842 34.6953 3.38842 34.6953 3.53575C34.5806 3.63662 34.4615 3.73239 34.3408 3.8258C31.5354 6.0766 29.8101 9.63571 29.3877 13.1679C29.0931 15.9892 29.5682 18.943 30.9362 21.4442C31.0143 21.5872 31.0899 21.7314 31.1655 21.8758C31.5099 22.522 31.9108 23.1033 32.3602 23.6808C32.5367 23.9078 32.6974 24.1411 32.8537 24.3824C32.8059 24.4097 32.7581 24.4371 32.7089 24.4653C31.4828 25.1698 30.2978 25.8842 29.1843 26.7575C28.8259 27.0342 28.8259 27.0342 28.5812 27.0342C28.472 26.9233 28.472 26.9233 28.3574 26.7669C28.315 26.7095 28.2725 26.6521 28.2288 26.5929C28.1841 26.5304 28.1393 26.4679 28.0932 26.4035C28.0468 26.3394 28.0005 26.2753 27.9527 26.2092C27.3719 25.3973 26.8919 24.5511 26.4266 23.6688C26.3901 23.5997 26.3535 23.5305 26.3159 23.4594C26.0583 22.9632 25.8514 22.4716 25.6347 21.9515C18.9984 21.9272 12.3621 21.9029 5.52472 21.8778C5.90032 23.2307 5.90032 23.2307 6.38566 24.5343C6.41629 24.606 6.44693 24.6776 6.47849 24.7514C7.20947 26.4286 8.12641 27.9727 9.28153 29.3914C9.31374 29.4312 9.34594 29.471 9.37912 29.512C10.2225 30.5461 11.162 31.5325 12.2281 32.338C12.2748 32.3744 12.3216 32.4109 12.3698 32.4485C15.0764 34.5565 18.1517 35.776 21.5096 36.3894C21.4636 36.7925 21.3246 37.1314 21.1735 37.5036C20.7154 38.6664 20.3676 39.881 20.11 41.1039C19.8571 41.1887 19.6851 41.1655 19.4272 41.1062C19.3504 41.0887 19.2737 41.0712 19.1947 41.0532C19.1124 41.0334 19.03 41.0137 18.9452 40.9934C18.8595 40.973 18.7738 40.9527 18.6855 40.9317C16.7171 40.4549 14.8293 39.7713 13.0383 38.8203C12.9502 38.7757 12.8619 38.7312 12.7736 38.6868C10.8698 37.7188 9.05696 36.4015 7.55506 34.8831C7.42717 34.7562 7.29352 34.6394 7.15451 34.5248C6.86266 34.2729 6.60915 33.9959 6.35487 33.7065C6.24889 33.5861 6.14142 33.467 6.03202 33.3497C1.90044 28.9084 0 22.9103 0 16.9424C8.07051 16.9424 16.141 16.9424 24.4561 16.9424C24.4318 16.8938 24.4075 16.8452 24.3824 16.7951C23.8701 12.9999 24.8039 8.9454 26.5923 5.59831C26.6178 5.55012 26.6434 5.50193 26.6697 5.45228C27.2302 4.4009 27.8877 3.4169 28.6549 2.50447C28.7178 2.42783 28.7807 2.35119 28.8437 2.27456C29.2728 1.75776 29.727 1.27169 30.2018 0.796407C30.2556 0.742561 30.3094 0.688715 30.3648 0.633237C31.0114 -0.00656905 31.0114 -0.00656903 31.2213 0.0117573Z" fill="white"/>
<path d="M38.9838 10.43C39.698 11.0124 40.0937 11.7804 40.2936 12.6699C40.3651 13.8309 40.2293 14.823 39.4833 15.7637C39.1244 16.1575 38.7677 16.4221 38.2904 16.6576C38.2104 16.6972 38.1304 16.7368 38.048 16.7776C37.9869 16.8076 37.9257 16.8377 37.8627 16.8686C37.8625 16.9192 37.8623 16.9697 37.8621 17.0218C37.8592 17.5489 37.8512 18.0758 37.8403 18.6028C37.8364 18.7994 37.8347 18.9957 37.8339 19.1924C37.8326 19.4755 37.8265 19.7581 37.8196 20.041C37.8204 20.1724 37.8204 20.1724 37.8213 20.3064C37.8003 20.9049 37.8003 20.9049 37.5571 21.1594C37.3695 21.2922 37.1819 21.4022 36.9788 21.5094C36.8593 21.5845 36.7403 21.6602 36.622 21.737C36.5078 21.8072 36.3935 21.8771 36.279 21.9468C36.2203 21.9831 36.1616 22.0194 36.1012 22.0568C36.0451 22.0911 35.9891 22.1253 35.9314 22.1606C35.8813 22.1912 35.8312 22.2219 35.7796 22.2535C35.6528 22.3197 35.6528 22.3197 35.5055 22.3197C35.4812 20.4965 35.4569 18.6734 35.4319 16.795C35.3103 16.7707 35.1888 16.7464 35.0635 16.7213C34.1814 16.3124 33.5171 15.5972 33.1486 14.7013C32.7873 13.6711 32.8563 12.6227 33.3048 11.6294C33.7907 10.7258 34.5779 10.1034 35.5392 9.77685C36.7605 9.4279 37.9656 9.69869 38.9838 10.43Z" fill="white"/>
<path d="M37.4208 38.4529C37.3557 42.2019 37.2899 45.9509 37.2236 49.6998C37.2104 50.4448 37.1973 51.1898 37.1842 51.9348C37.1569 53.4868 37.1295 55.0387 37.1015 56.5907C37.0896 57.2524 37.0778 57.9142 37.0662 58.576C37.0564 59.1387 37.0463 59.7014 37.036 60.264C37.0308 60.5503 37.0257 60.8365 37.0208 61.1227C37.0163 61.3847 37.0116 61.6468 37.0066 61.9088C37.004 62.0473 37.0018 62.1858 36.9995 62.3244C36.9916 62.7313 36.9782 63.1375 36.9522 63.5437C36.9456 63.6484 36.9456 63.6484 36.9388 63.7552C36.8856 64.0478 36.752 64.1836 36.5368 64.3822C36.0455 63.9168 36.0455 63.9168 36.001 63.556C35.9998 63.4664 35.9998 63.4664 35.9986 63.375C35.9973 63.3061 35.996 63.2371 35.9947 63.1661C35.9937 63.0534 35.9937 63.0534 35.9926 62.9384C35.9907 62.8193 35.9907 62.8193 35.9888 62.6978C35.9847 62.4337 35.9816 62.1696 35.9786 61.9055C35.9759 61.7187 35.9732 61.5319 35.9704 61.3451C35.9648 60.9552 35.9595 60.5653 35.9547 60.1754C35.948 59.6305 35.9406 59.0856 35.9329 58.5407C35.9194 57.5611 35.9073 56.5815 35.8954 55.6019C35.8901 55.1639 35.8847 54.7259 35.8793 54.2879C35.868 53.3702 35.8568 52.4525 35.8457 51.5348C35.8362 50.7539 35.8266 49.9729 35.8169 49.192C35.8055 48.2731 35.7942 47.3542 35.783 46.4353C35.7771 45.9531 35.7712 45.471 35.7652 44.9888C35.7629 44.8041 35.7606 44.6193 35.7583 44.4346C35.7566 44.3006 35.7566 44.3006 35.7549 44.164C35.7497 43.7368 35.7448 43.3095 35.7411 42.8822C35.7397 42.7241 35.7382 42.5661 35.7368 42.408C35.7361 42.333 35.7355 42.2579 35.7348 42.1806C35.7308 41.7884 35.7232 41.3966 35.7095 41.0046C35.7041 40.8482 35.6997 40.6917 35.6958 40.5352C35.691 40.3595 35.6841 40.1839 35.6744 40.0084C35.6634 39.4937 35.6634 39.4937 35.8441 39.2555C36.1227 39.0048 36.4133 38.8521 36.7648 38.7267C36.9965 38.6394 37.1713 38.4529 37.4208 38.4529Z" fill="white"/>
<path d="M193.344 27.4309C193.65 27.6996 193.939 27.9761 194.222 28.2693C194.293 28.3417 194.363 28.4141 194.436 28.4886C194.952 29.0542 195.326 29.7037 195.703 30.3675C195.736 30.2645 195.769 30.1616 195.803 30.0555C196.263 28.7356 196.803 27.8829 198.056 27.2202C199.114 26.7087 200.188 26.7622 201.342 26.7574C201.49 26.7548 201.639 26.7523 201.792 26.7496C203.232 26.7434 204.587 26.9163 205.7 27.899C206.657 28.9059 206.991 29.8743 206.982 31.2393C206.983 31.4219 206.983 31.4219 206.984 31.6081C206.986 32.0141 206.985 32.4201 206.984 32.8261C206.985 33.1178 206.986 33.4096 206.987 33.7014C206.989 34.4927 206.989 35.2839 206.988 36.0752C206.988 36.5696 206.988 37.0639 206.989 37.5583C206.989 37.6405 206.989 37.7227 206.989 37.8073C206.989 37.9743 206.99 38.1412 206.99 38.3082C206.991 39.872 206.991 41.4359 206.989 42.9997C206.988 44.4297 206.99 45.8597 206.993 47.2897C206.996 48.7593 206.997 50.2289 206.996 51.6985C206.996 52.5231 206.996 53.3476 206.998 54.1722C207 54.9473 206.999 55.7223 206.997 56.4974C206.997 56.7819 206.997 57.0663 206.998 57.3507C207 57.739 206.999 58.1272 206.996 58.5155C206.998 58.628 206.999 58.7406 207 58.8565C206.991 59.6697 206.821 60.2342 206.221 60.8209C206.116 60.8901 206.116 60.8901 206.009 60.9607C205.939 61.0088 205.869 61.0568 205.797 61.1063C205.397 61.3184 205.007 61.3623 204.56 61.3702C204.406 61.3732 204.406 61.3732 204.25 61.3763C203.782 61.3818 203.314 61.3868 202.846 61.3897C202.601 61.3917 202.355 61.3951 202.109 61.3998C199.465 61.4503 199.465 61.4503 198.542 60.7293C198.433 60.6451 198.433 60.6451 198.322 60.5593C198.125 60.3949 197.944 60.2234 197.763 60.0428C196.917 59.2267 196.231 58.6082 195.04 58.4537C194.069 58.5709 193.293 59.0278 192.471 59.5337C189.585 61.3086 186.996 61.6559 183.684 60.91C180.967 60.229 178.62 58.9244 176.573 57.0267C176.509 56.9678 176.445 56.9089 176.38 56.8483C172.898 53.5859 170.909 49.154 170.737 44.3923C170.623 39.0132 172.343 34.3991 176.071 30.4991C178.112 28.4226 180.779 26.869 183.608 26.1711C183.689 26.1509 183.771 26.1307 183.855 26.1099C186.967 25.3818 190.709 25.4142 193.344 27.4309ZM183.608 36.1683C181.611 38.6226 181.194 41.579 181.42 44.6492C181.741 47.2933 182.855 49.7431 184.905 51.4948C186.689 52.7983 188.902 53.0532 191.053 52.7778C192.655 52.4628 194.029 51.7246 194.963 50.3619C195.839 48.7696 195.867 47.0422 195.872 45.2692C195.873 45.0665 195.875 44.8637 195.876 44.661C195.878 44.2387 195.879 43.8164 195.879 43.3941C195.88 42.8555 195.884 42.3169 195.89 41.7783C195.894 41.3606 195.895 40.9429 195.895 40.5251C195.895 40.3266 195.897 40.1281 195.899 39.9295C195.915 38.6247 195.779 37.7605 194.958 36.7112C193.316 35.0726 191.163 34.2878 188.865 34.1796C187.005 34.2608 184.933 34.7954 183.608 36.1683Z" fill="white"/>
<path d="M142.084 26.6256C142.224 26.622 142.363 26.6185 142.507 26.6148C144.095 26.6029 145.265 27.1047 146.458 28.1453C147.767 29.4496 148.131 31.4467 148.622 33.1709C148.687 33.3943 148.751 33.6178 148.815 33.8412C148.985 34.433 149.155 35.025 149.324 35.6172C149.428 35.9838 149.533 36.3503 149.638 36.7168C150.631 40.1852 151.621 43.6543 152.506 47.1523C152.527 47.2372 152.549 47.3221 152.571 47.4095C152.764 48.1751 152.955 48.9414 153.136 49.7099C153.158 49.8013 153.18 49.8926 153.202 49.9867C153.246 50.2378 153.246 50.2378 153.246 50.7315C153.328 50.7315 153.409 50.7315 153.493 50.7315C153.508 50.5708 153.523 50.41 153.538 50.2444C153.604 49.6548 153.732 49.1 153.888 48.5287C153.917 48.423 153.945 48.3174 153.974 48.2085C154.07 47.8536 154.167 47.499 154.265 47.1446C154.298 47.0199 154.332 46.8952 154.367 46.7667C155.32 43.2735 156.344 39.8006 157.367 36.3277C157.632 35.4282 157.895 34.5283 158.152 33.6267C158.274 33.2008 158.397 32.7752 158.52 32.3497C158.572 32.1692 158.623 31.9884 158.673 31.8075C159.227 29.8253 159.99 28.2852 161.785 27.2022C162.698 26.7622 163.512 26.5986 164.524 26.6102C164.695 26.6116 164.695 26.6116 164.869 26.613C166.349 26.6488 167.384 27.1245 168.439 28.1496C169.531 29.3049 170.103 30.6196 170.062 32.2107C169.975 33.3018 169.581 34.3588 169.208 35.3804C169.164 35.503 169.12 35.6255 169.074 35.7518C168.929 36.1555 168.782 36.5589 168.636 36.9622C168.531 37.2505 168.427 37.5387 168.323 37.827C168.103 38.4387 167.881 39.0502 167.66 39.6617C167.316 40.6114 166.974 41.5616 166.631 42.5119C166.147 43.8581 165.661 45.2041 165.175 46.5499C164.83 47.5059 164.485 48.4621 164.141 49.4185C163.95 49.9466 163.76 50.4746 163.569 51.0026C163.483 51.2433 163.396 51.484 163.309 51.7248C162.895 52.8759 162.477 54.0247 162.038 55.1665C162.003 55.2566 161.969 55.3466 161.934 55.4394C161.06 57.6892 159.215 59.5816 157.009 60.5648C154.576 61.5652 151.832 61.6669 149.374 60.6902C146.751 59.4954 144.932 57.5891 143.882 54.8991C143.655 54.2796 143.446 53.6541 143.239 53.0276C143.081 52.5487 142.921 52.0709 142.76 51.5929C142.676 51.3442 142.593 51.0953 142.51 50.8465C142.13 49.714 141.737 48.5864 141.341 47.4595C140.577 45.2818 139.829 43.0985 139.09 40.912C138.637 39.5743 138.182 38.2379 137.708 36.9078C137.652 36.7494 137.652 36.7494 137.594 36.5879C137.421 36.1009 137.246 35.6142 137.07 35.1283C136.429 33.3497 135.985 31.5996 136.804 29.7912C137.542 28.3769 138.547 27.3885 140.04 26.7876C140.704 26.5862 141.397 26.6314 142.084 26.6256Z" fill="white"/>
<path d="M90.9177 26.601C91.0532 26.5991 91.1888 26.5972 91.3284 26.5952C92.9635 26.603 94.1042 27.1576 95.2615 28.2841C96.283 29.3639 96.616 30.6505 97.0218 32.0557C97.0741 32.2348 97.1264 32.414 97.1788 32.5931C97.3189 33.0725 97.4578 33.5522 97.5965 34.032C97.6831 34.3315 97.77 34.6309 97.8569 34.9303C101.328 46.8843 101.328 46.8843 102.026 50.4832C102.273 50.0467 102.388 49.5901 102.507 49.1068C102.555 48.9165 102.603 48.7263 102.651 48.5362C102.677 48.4333 102.703 48.3304 102.73 48.2243C103.68 44.4771 104.782 40.7718 105.872 37.0635C106.087 36.331 106.3 35.598 106.513 34.8649C106.68 34.2939 106.847 33.7233 107.016 33.1528C107.092 32.8924 107.168 32.6319 107.244 32.3713C107.854 30.2712 108.494 28.303 110.525 27.1664C111.394 26.7266 112.214 26.5976 113.18 26.6087C113.294 26.6096 113.408 26.6106 113.525 26.6115C114.378 26.6321 115.093 26.7413 115.849 27.1564C115.946 27.2073 116.042 27.2582 116.142 27.3107C117.346 28.0255 118.203 29.2673 118.638 30.5881C118.986 32.4693 118.444 34.0518 117.792 35.7965C117.622 36.255 117.456 36.7153 117.29 37.1753C116.963 38.0821 116.633 38.988 116.302 39.8935C115.746 41.4126 115.198 42.9341 114.65 44.4559C114.276 45.496 113.901 46.5358 113.525 47.5755C113.497 47.6544 113.468 47.7333 113.439 47.8146C113.382 47.9735 113.324 48.1324 113.267 48.2913C113.068 48.8411 112.87 49.391 112.672 49.9409C112.404 50.6846 112.135 51.428 111.866 52.1711C111.766 52.446 111.667 52.721 111.568 52.9962C110.291 56.546 110.291 56.546 109.061 58.012C108.972 58.1341 108.883 58.2563 108.791 58.3822C107.421 59.9813 105.009 61.1295 102.931 61.3284C99.8507 61.4987 97.3832 60.7006 95.0451 58.7337C93.8516 57.6229 93.1627 56.3107 92.6118 54.802C92.5639 54.6725 92.5161 54.5431 92.4667 54.4097C92.0082 53.1607 91.5774 51.9027 91.154 50.6415C90.9283 49.9697 90.7009 49.2984 90.4736 48.627C90.4278 48.4916 90.382 48.3562 90.3347 48.2166C89.897 46.9251 89.4482 45.6375 88.9969 44.3507C88.248 42.2143 87.5144 40.0729 86.788 37.9288C86.7105 37.7001 86.633 37.4714 86.5555 37.2428C86.4995 37.0777 86.4995 37.0777 86.4425 36.9092C86.2511 36.3459 86.0571 35.7836 85.8588 35.2227C85.8191 35.1102 85.7794 34.9978 85.7384 34.8819C85.6631 34.6692 85.5873 34.4566 85.5111 34.2442C85.0072 32.8231 84.8629 31.2848 85.4871 29.8717C85.7115 29.4436 85.9591 29.0391 86.2276 28.6375C86.2989 28.528 86.3702 28.4185 86.4436 28.3058C87.6992 27.0153 89.1553 26.5762 90.9177 26.601Z" fill="white"/>
<path d="M127.682 26.6101C127.801 26.6112 127.921 26.6122 128.045 26.6132C129.621 26.6504 130.774 27.1984 131.921 28.2811C132.998 29.4229 133.537 30.7294 133.531 32.2954C133.531 32.3995 133.532 32.5036 133.532 32.6109C133.534 32.9581 133.534 33.3053 133.534 33.6525C133.534 33.9022 133.535 34.1518 133.536 34.4014C133.538 35.0785 133.539 35.7555 133.539 36.4326C133.539 36.856 133.54 37.2793 133.54 37.7027C133.543 39.1807 133.544 40.6588 133.544 42.1368C133.543 43.5128 133.546 44.8888 133.55 46.2648C133.553 47.4476 133.554 48.6304 133.554 49.8132C133.554 50.519 133.555 51.2248 133.558 51.9306C133.56 52.5947 133.56 53.2588 133.558 53.923C133.558 54.166 133.558 54.4091 133.56 54.6521C133.572 56.7136 133.253 58.2326 131.785 59.7721C130.527 60.973 129.072 61.3931 127.353 61.3718C125.738 61.2658 124.356 60.6024 123.254 59.4216C121.886 57.7757 121.841 56.017 121.848 53.9737C121.848 53.73 121.847 53.4864 121.846 53.2428C121.845 52.5848 121.845 51.927 121.846 51.2691C121.847 50.5785 121.846 49.888 121.846 49.1975C121.845 48.0383 121.846 46.8791 121.848 45.7199C121.85 44.3821 121.849 43.0443 121.847 41.7065C121.845 40.5551 121.845 39.4038 121.846 38.2524C121.847 37.566 121.847 36.8795 121.846 36.193C121.845 35.5476 121.845 34.9022 121.847 34.2568C121.848 34.0207 121.848 33.7846 121.847 33.5486C121.84 31.3532 122.142 29.7129 123.691 28.0584C124.831 26.9931 126.15 26.5933 127.682 26.6101Z" fill="white"/>
<path d="M127.227 11.5872C128.821 11.5234 130.275 12.0026 131.509 13.006C132.541 13.9617 133.427 15.2174 133.513 16.6671C133.588 18.7201 133.291 20.3195 131.863 21.8924C130.528 23.1585 128.972 23.6214 127.167 23.6044C125.411 23.5026 124.074 22.7487 122.884 21.4797C121.801 20.0872 121.41 18.5501 121.557 16.7911C121.841 15.0019 122.705 13.6613 124.145 12.5635C125.093 11.9649 126.118 11.6645 127.227 11.5872Z" fill="white"/>
</svg>
